<?xml version="1.0" encoding="UTF-8"?><svg xmlns="http://www.w3.org/2000/svg" xmlns:xlink="http://www.w3.org/1999/xlink" width="960pt" zoomAndPan="magnify" viewBox="0 0 960 299.999988" height="299.999988pt" preserveAspectRatio="xMidYMid meet" version="1.2"><defs><g/></defs><g xml:id="surface1" id="surface1"><g style="fill:rgb(10.198975%,23.529053%,62.748718%);fill-opacity:1;"><g transform="translate(48.212785, 198.749984)"><path style="stroke:none;" d="M 93.859375 -84.5 L 93.859375 0 L 73.578125 0 L 73.578125 -47.3125 L 48.484375 -31.328125 L 24.1875 -47.1875 L 24.1875 0 L 3.90625 0 L 3.90625 -84.5 L 48.75 -55.515625 Z M 93.859375 -84.5 "/></g></g><g style="fill:rgb(10.198975%,23.529053%,62.748718%);fill-opacity:1;"><g transform="translate(158.969612, 198.749984)"><path style="stroke:none;" d="M 1.953125 -84.5 L 22.234375 -84.5 L 22.234375 0 L 1.953125 0 Z M 1.953125 -84.5 "/></g></g><g style="fill:rgb(10.198975%,23.529053%,62.748718%);fill-opacity:1;"><g transform="translate(196.148648, 198.749984)"><path style="stroke:none;" d="M 92.171875 -84.5 L 58.109375 -43.6875 L 58.109375 0 L 37.828125 0 L 37.828125 -43.6875 L 3.90625 -84.5 L 30.546875 -84.5 L 48.09375 -63.3125 L 65.515625 -84.5 Z M 92.171875 -84.5 "/></g></g><g style="fill:rgb(10.198975%,23.529053%,62.748718%);fill-opacity:1;"><g transform="translate(305.215526, 198.749984)"><path style="stroke:none;" d="M 68.765625 0 L 62.65625 -11.828125 L 30.8125 -11.828125 L 24.703125 0 L 1.296875 0 L 46.796875 -84.5 L 92.171875 0 Z M 54.46875 -27.6875 L 46.796875 -42.515625 L 39 -27.6875 Z M 54.46875 -27.6875 "/></g></g><g style="fill:rgb(10.198975%,23.529053%,62.748718%);fill-opacity:1;"><g transform="translate(411.682489, 198.749984)"><path style="stroke:none;" d="M 68.765625 0 L 62.65625 -11.828125 L 30.8125 -11.828125 L 24.703125 0 L 1.296875 0 L 46.796875 -84.5 L 92.171875 0 Z M 54.46875 -27.6875 L 46.796875 -42.515625 L 39 -27.6875 Z M 54.46875 -27.6875 "/></g></g><g style="fill:rgb(10.198975%,23.529053%,62.748718%);fill-opacity:1;"><g transform="translate(518.149453, 198.749984)"><path style="stroke:none;" d="M 36.015625 -83.984375 C 47.628906 -83.984375 57.59375 -79.863281 65.90625 -71.625 C 74.144531 -63.394531 78.265625 -53.429688 78.265625 -41.734375 C 78.265625 -30.117188 74.144531 -20.148438 65.90625 -11.828125 C 57.59375 -3.597656 47.628906 0.515625 36.015625 0.515625 L 3.90625 0.515625 L 3.90625 -83.984375 Z M 52.125 -25.609375 C 56.550781 -30.023438 58.765625 -35.398438 58.765625 -41.734375 C 58.765625 -47.972656 56.550781 -53.390625 52.125 -57.984375 C 47.707031 -62.398438 42.289062 -64.609375 35.875 -64.609375 L 24.1875 -64.609375 L 24.1875 -18.984375 L 36.015625 -18.984375 C 42.335938 -18.984375 47.707031 -21.191406 52.125 -25.609375 Z M 52.125 -25.609375 "/></g></g><g style="fill:rgb(10.198975%,23.529053%,62.748718%);fill-opacity:1;"><g transform="translate(613.306748, 198.749984)"><path style="stroke:none;" d=""/></g></g><g style="fill:rgb(10.198975%,23.529053%,62.748718%);fill-opacity:1;"><g transform="translate(660.10548, 198.749984)"><path style="stroke:none;" d="M 14.4375 -84.5 L 34.703125 -84.5 L 34.703125 0 C 34.703125 10.65625 32.753906 18.238281 28.859375 22.75 C 24.265625 28.125 15.945312 30.8125 3.90625 30.8125 L 3.90625 10.53125 C 10.925781 10.53125 14.4375 7.019531 14.4375 0 Z M 14.4375 -84.5 "/></g></g><g style="fill:rgb(10.198975%,23.529053%,62.748718%);fill-opacity:1;"><g transform="translate(711.714073, 198.749984)"><path style="stroke:none;" d="M 45.5 -84.109375 C 57.539062 -84.109375 67.8125 -79.863281 76.3125 -71.375 C 84.800781 -62.875 89.046875 -52.601562 89.046875 -40.5625 C 89.046875 -28.507812 84.800781 -18.238281 76.3125 -9.75 C 67.8125 -1.257812 57.539062 2.984375 45.5 2.984375 C 33.457031 2.984375 23.1875 -1.257812 14.6875 -9.75 C 6.195312 -18.238281 1.953125 -28.507812 1.953125 -40.5625 C 1.953125 -52.601562 6.195312 -62.875 14.6875 -71.375 C 23.1875 -79.863281 33.457031 -84.109375 45.5 -84.109375 Z M 63.4375 -22.625 C 68.375 -27.5625 70.84375 -33.539062 70.84375 -40.5625 C 70.84375 -47.582031 68.375 -53.5625 63.4375 -58.5 C 58.5 -63.4375 52.519531 -65.90625 45.5 -65.90625 C 38.476562 -65.90625 32.5 -63.4375 27.5625 -58.5 C 22.625 -53.5625 20.15625 -47.582031 20.15625 -40.5625 C 20.15625 -33.539062 22.625 -27.5625 27.5625 -22.625 C 32.675781 -17.675781 38.65625 -15.203125 45.5 -15.203125 C 52.34375 -15.203125 58.320312 -17.675781 63.4375 -22.625 Z M 63.4375 -22.625 "/></g></g><g style="fill:rgb(10.198975%,23.529053%,62.748718%);fill-opacity:1;"><g transform="translate(815.711104, 198.749984)"><path style="stroke:none;" d="M 92.171875 -84.5 L 58.109375 -43.6875 L 58.109375 0 L 37.828125 0 L 37.828125 -43.6875 L 3.90625 -84.5 L 30.546875 -84.5 L 48.09375 -63.3125 L 65.515625 -84.5 Z M 92.171875 -84.5 "/></g></g></g></svg>